P3
45 73
255
0 0 0 255 255 255 255 255 255 255 255 255 255 255 255 255 255 255 255 255 255 255 255 255 255 255 255 255 255 255 255 255 255 255 255 255 255 255 255 255 255 255 255 255 255 255 255 255 255 255 255 255 255 255 255 255 255 255 255 255 255 255 255 255 255 255 255 255 255 255 255 255 255 255 255 255 255 255 255 255 255 255 255 255 255 255 255 255 255 255 255 255 255 255 255 255 255 255 255 255 255 255 255 255 255 255 255 255 255 255 255 255 255 255 255 255 255 255 255 255 255 255 255 255 255 255 255 255 255 255 255 255 255 255 255 
255 255 255 255 255 255 255 255 255 255 255 255 255 255 255 255 255 255 255 255 255 255 255 255 255 255 255 255 255 255 255 255 255 255 255 255 255 255 255 255 255 255 255 255 255 255 255 255 255 254 253 255 254 255 251 255 255 250 254 255 252 254 255 255 254 255 254 253 254 255 255 252 252 255 255 255 255 255 255 255 255 255 255 255 193 150 159 201 153 160 179 121 132 183 123 137 178 122 137 175 127 139 211 186 193 205 187 193 205 187 194 205 188 195 196 168 174 177 119 128 186 120 132 181 120 131 184 120 131 184 120 131 184 120 131 
255 255 255 184 120 131 255 255 255 255 255 255 255 255 255 255 255 255 255 255 255 255 255 255 255 255 255 255 255 255 255 255 255 255 255 255 255 255 255 255 255 255 255 255 255 255 255 255 254 255 253 254 254 255 255 252 255 254 251 255 255 255 255 255 255 255 255 255 255 255 255 255 255 255 255 210 191 200 190 139 150 129 0 23 131 32 46 127 0 5 160 5 18 161 0 8 206 7 19 207 5 14 192 2 8 196 1 12 204 0 13 202 0 12 207 11 21 217 23 28 228 13 24 220 16 24 221 16 24 221 16 24 221 16 24 
255 255 255 221 16 24 255 255 255 255 255 255 255 255 255 255 255 255 255 255 255 255 255 255 255 255 255 255 255 255 255 255 255 255 255 255 255 255 255 255 255 255 255 255 255 255 255 255 255 252 255 255 255 255 252 255 255 255 255 255 234 219 222 180 128 138 176 96 111 123 15 35 123 0 17 119 0 0 125 0 0 151 15 21 202 26 40 230 28 45 245 28 44 250 26 36 241 27 35 241 27 37 244 26 37 240 27 37 236 30 38 236 30 38 238 28 38 241 25 37 244 23 37 241 25 37 241 25 37 241 26 37 241 25 37 
255 255 255 241 25 37 255 255 255 255 255 255 255 255 255 255 255 255 255 255 255 255 255 255 255 255 255 255 255 255 255 255 255 255 255 255 255 255 255 254 255 253 255 254 254 255 255 255 255 255 255 220 208 210 194 142 153 124 12 33 117 0 0 159 0 14 170 4 15 206 29 40 228 24 40 238 33 44 247 27 45 246 28 40 241 29 33 233 30 34 233 28 33 235 28 35 236 27 36 236 27 35 236 27 35 235 28 35 236 27 35 236 27 35 236 27 34 235 28 33 234 29 33 235 28 33 239 26 34 241 25 33 241 25 34 
255 255 255 238 26 34 255 255 255 255 255 255 255 255 255 255 255 255 255 255 255 255 255 255 255 255 255 255 255 255 255 255 255 255 255 255 255 255 255 255 255 255 255 255 255 252 240 245 163 102 124 116 0 0 210 13 29 222 24 40 239 27 45 247 28 38 242 29 33 245 25 33 236 29 33 236 28 29 237 31 26 254 24 39 246 29 34 245 24 34 239 27 33 238 27 32 237 27 35 237 26 36 237 26 36 237 26 36 237 26 36 237 26 36 236 26 36 238 26 36 239 26 36 239 26 36 226 33 31 235 30 33 241 28 37 
255 255 255 241 25 32 255 255 255 255 255 255 255 255 255 255 255 255 255 255 255 255 255 255 255 255 255 255 255 255 255 255 255 255 255 255 255 255 255 248 255 255 209 154 171 103 0 12 148 0 16 228 45 54 245 27 31 239 26 28 234 30 30 237 27 34 239 25 37 227 32 32 250 22 30 255 28 45 220 29 43 121 13 18 135 12 22 215 32 44 255 27 45 244 24 30 235 28 34 237 26 36 236 27 36 237 27 36 237 27 36 236 27 36 237 27 36 238 26 35 235 28 36 236 26 34 255 24 42 223 34 50 187 17 31 
255 255 255 252 29 45 255 255 255 255 255 255 255 255 255 255 255 255 255 255 255 255 255 255 255 255 255 255 255 255 254 255 255 255 255 255 255 255 255 183 138 149 117 0 0 187 49 55 244 30 43 238 28 30 235 28 33 238 25 40 236 27 38 233 28 36 243 24 35 235 29 31 250 33 48 65 4 6 0 0 0 75 94 93 69 94 84 0 0 0 86 4 11 243 36 46 241 25 33 236 27 36 237 27 36 236 27 36 237 27 36 236 27 36 238 26 35 240 25 36 238 29 36 237 36 40 51 0 2 0 0 0 27 47 45 
255 255 255 49 0 0 255 255 255 255 255 255 255 255 255 255 255 255 253 255 255 253 254 255 255 254 255 253 254 255 254 253 255 253 255 255 237 222 225 125 8 25 223 36 40 247 24 33 238 26 35 237 26 35 237 26 36 237 26 36 237 26 36 237 26 35 237 26 38 255 31 35 60 0 5 61 71 73 255 255 255 255 255 255 255 255 255 255 255 255 35 59 54 82 5 8 255 25 41 231 30 33 240 25 36 236 27 36 237 27 36 237 26 36 234 29 33 241 25 38 250 36 38 2 0 0 89 103 102 255 255 255 255 255 255 
255 255 255 98 113 115 255 255 255 255 255 255 255 255 255 255 255 255 255 252 255 255 253 255 253 254 254 255 255 255 255 255 255 226 217 218 131 9 29 235 32 41 243 25 31 237 26 36 235 27 37 237 26 35 237 27 36 236 27 35 236 27 35 237 27 36 242 26 34 201 30 38 0 2 0 255 255 255 254 254 254 255 255 255 255 255 255 253 253 253 255 255 255 0 0 0 205 33 44 252 20 38 235 27 35 236 26 34 237 27 36 237 26 36 233 29 33 250 26 36 119 14 22 48 68 68 255 255 255 254 254 254 255 255 255 
255 255 255 255 255 255 255 255 255 255 255 255 255 255 255 255 255 255 255 254 255 253 255 255 255 255 255 253 251 255 171 96 105 134 0 2 218 35 38 240 26 34 241 24 36 235 28 37 235 27 35 237 26 35 237 27 36 237 27 36 237 27 36 236 26 36 252 27 32 113 8 17 102 114 114 255 255 255 255 255 255 99 99 99 172 172 172 255 255 255 255 255 255 87 103 100 115 10 12 255 22 46 228 31 35 239 26 34 236 27 36 237 26 36 237 27 35 255 28 37 23 0 0 208 215 211 255 255 255 253 253 253 127 127 127 
255 255 255 255 255 255 255 255 255 255 255 255 255 255 255 255 255 255 253 253 254 249 255 255 255 255 255 142 42 62 152 6 26 234 38 44 242 26 34 235 27 36 236 27 37 236 27 36 237 26 35 237 27 36 237 27 36 237 27 36 237 27 36 236 27 36 255 27 32 88 0 9 139 141 148 255 255 255 255 255 255 17 17 17 0 0 0 255 255 255 255 255 255 115 132 126 104 9 8 255 24 48 228 31 36 240 26 34 236 27 36 237 26 36 232 30 33 252 33 42 0 0 0 247 255 247 255 255 255 179 179 179 0 0 0 
255 255 255 255 255 255 255 255 255 255 255 255 255 255 255 255 255 255 253 253 254 255 255 255 138 59 71 172 2 22 246 34 46 246 23 28 240 25 38 236 27 37 237 27 35 237 26 35 237 27 36 237 27 36 237 27 36 237 27 36 237 27 36 236 26 36 247 27 33 157 21 30 33 56 50 255 255 255 253 253 253 255 255 255 210 210 209 255 255 255 255 255 255 23 39 38 155 22 27 255 20 41 232 29 35 237 26 34 236 27 36 237 26 36 235 27 35 255 27 44 0 0 0 216 221 222 255 255 255 255 255 255 233 234 233 
255 255 255 255 255 255 255 255 255 0 0 0 255 255 255 255 255 255 255 255 255 238 237 236 134 0 10 234 35 43 240 27 26 235 28 32 232 29 37 235 27 35 236 27 35 236 27 35 237 27 35 237 27 36 237 27 36 237 27 36 237 27 36 237 27 35 238 26 36 247 37 43 0 0 0 208 213 215 255 255 255 255 255 255 255 255 255 255 255 255 190 193 197 0 0 0 249 33 49 240 25 34 239 26 36 236 27 35 237 27 36 236 27 35 238 26 37 249 29 33 117 11 17 64 80 81 255 255 255 254 254 253 255 255 255 
255 255 255 255 255 255 255 255 255 255 255 255 255 29 35 255 255 255 255 255 255 134 27 44 235 31 47 243 24 34 237 28 28 239 26 33 245 23 34 240 24 38 239 25 38 239 25 38 236 27 36 237 27 35 237 27 36 237 27 36 237 27 36 236 27 35 240 25 37 248 27 29 180 32 45 0 0 0 111 125 123 233 241 241 234 237 234 121 132 137 0 0 0 187 37 40 253 21 33 231 29 34 238 26 36 236 27 36 237 27 36 236 27 35 238 25 37 236 30 29 245 30 47 0 0 0 113 129 127 255 255 255 255 255 255 
255 255 255 255 255 255 255 255 255 255 255 255 255 255 255 234 28 38 255 255 255 149 45 57 241 24 27 230 31 31 235 27 36 234 27 39 231 28 42 233 29 33 233 29 33 233 29 33 236 27 35 237 26 36 237 27 36 237 27 36 237 27 36 237 27 35 237 26 36 227 32 32 255 22 36 205 33 49 71 3 8 0 0 0 0 0 0 56 2 2 229 27 52 254 23 34 234 28 32 237 26 36 236 27 36 237 27 36 237 27 36 236 27 35 237 26 38 230 30 35 255 19 30 222 32 44 41 0 0 0 15 8 57 69 70 
255 255 255 255 255 255 255 255 255 255 255 255 255 255 255 255 255 255 237 26 36 161 96 106 217 18 38 250 24 40 240 32 34 248 27 33 239 32 31 241 30 38 244 28 38 247 24 36 241 27 36 238 26 35 237 26 35 237 26 35 236 27 36 236 26 36 238 26 36 235 28 33 236 28 30 247 25 30 255 29 29 238 39 46 253 32 46 255 25 37 239 29 33 238 27 32 238 26 35 236 26 36 236 27 36 236 27 36 236 27 36 236 27 35 238 25 37 236 27 35 235 29 31 242 27 31 248 35 34 218 20 38 164 15 26 
255 255 255 255 255 255 255 255 255 255 255 255 254 254 254 254 254 255 253 254 255 236 27 35 161 71 74 139 32 35 176 17 33 180 0 14 181 0 5 173 0 9 177 0 7 204 10 31 202 1 21 227 23 40 239 28 40 239 26 35 238 26 33 239 26 33 235 29 31 240 26 32 239 27 35 237 28 32 237 28 35 244 23 38 235 29 32 240 27 31 234 29 33 233 30 35 235 28 31 238 26 31 247 25 34 247 26 35 245 28 36 245 27 36 242 29 35 244 28 36 243 27 39 243 25 38 239 27 32 237 29 35 246 29 29 
255 255 255 255 255 255 255 255 255 255 255 255 254 253 251 250 252 255 249 255 255 254 236 243 237 26 38 255 255 207 104 0 11 217 182 154 226 223 175 229 214 176 236 216 180 196 166 131 196 159 127 168 105 88 134 13 25 191 17 35 230 19 35 233 16 30 231 17 30 234 15 32 233 16 32 234 15 32 233 16 32 233 15 31 233 16 32 233 15 32 234 16 32 234 15 31 236 15 36 229 25 47 183 9 23 166 0 10 171 0 8 171 0 8 172 0 10 172 0 13 168 0 11 192 11 30 236 16 32 234 16 32 234 15 32 
255 255 255 255 255 255 255 255 255 255 255 255 254 255 252 253 253 255 255 255 255 129 37 52 230 210 169 248 26 35 232 204 172 176 112 87 255 238 185 236 233 177 239 232 176 244 235 180 240 237 183 244 243 189 255 252 201 194 151 124 166 91 83 174 93 82 173 95 82 171 95 84 170 96 84 171 95 84 170 96 84 171 95 84 170 96 84 171 95 84 170 96 84 170 95 84 174 94 84 161 94 78 219 186 161 231 211 176 227 209 169 227 209 170 228 209 170 227 209 173 234 213 179 183 138 112 169 91 81 170 96 84 171 95 84 
255 255 255 255 255 255 255 255 255 255 255 255 253 255 253 255 255 255 255 255 255 150 46 57 250 248 193 155 54 57 218 196 157 165 70 65 243 250 190 242 226 177 242 225 176 239 226 176 243 224 179 235 228 178 234 229 175 243 236 183 247 240 187 244 244 184 238 246 183 246 242 186 246 242 186 247 242 185 247 242 185 247 242 185 247 242 186 247 242 185 247 242 185 247 242 184 244 242 190 244 242 187 239 236 175 241 233 172 242 232 173 242 232 173 243 231 174 242 231 176 238 234 176 248 237 182 247 242 185 247 242 185 247 242 185 
255 255 255 255 255 255 255 255 255 255 255 255 252 254 252 252 255 255 194 139 154 176 118 96 245 238 184 251 245 187 250 242 191 149 50 51 225 188 159 250 250 188 245 242 180 240 237 178 244 230 178 245 232 176 242 230 175 241 226 174 242 225 173 242 226 173 240 226 174 239 227 176 242 225 174 241 226 173 238 227 177 239 227 176 239 226 177 238 229 168 253 240 189 255 244 190 255 244 187 255 244 189 255 244 188 252 241 190 249 240 194 249 240 193 249 240 194 249 241 193 249 240 193 249 240 193 245 233 180 238 228 168 239 226 175 
255 255 255 255 255 255 255 255 255 255 255 255 252 255 255 255 255 255 136 36 50 255 238 199 238 228 176 239 227 176 250 250 190 160 64 73 143 50 75 148 48 38 159 68 61 211 167 141 211 202 155 222 190 156 234 215 174 248 251 193 244 246 183 245 245 184 242 239 178 242 238 178 234 231 174 238 226 176 238 227 177 238 227 177 238 227 176 255 240 193 85 76 60 52 53 48 58 53 52 62 53 53 61 52 51 56 49 42 64 60 45 64 59 45 64 59 45 64 59 45 64 59 45 55 49 38 170 154 127 245 234 183 239 228 173 
255 255 255 255 255 255 255 255 255 255 255 255 255 255 255 167 98 118 159 96 76 245 241 183 239 226 177 238 231 174 218 194 154 161 69 92 255 255 255 255 255 255 205 173 190 143 0 0 188 9 27 141 0 26 131 0 11 149 26 30 172 85 79 163 76 68 190 114 104 204 156 134 255 250 205 252 240 187 240 232 180 238 227 176 238 226 177 239 228 170 253 242 195 253 244 197 255 246 184 255 247 182 255 246 182 255 244 186 255 242 191 255 242 190 255 242 190 255 242 190 255 242 190 255 242 190 245 233 185 238 228 170 238 226 175 
255 255 255 253 254 255 255 253 255 255 255 254 255 255 255 149 53 62 255 249 196 234 230 177 239 227 176 243 224 174 190 129 104 252 248 254 252 254 255 255 255 255 169 116 130 237 15 31 228 35 62 113 11 17 230 43 58 248 22 33 227 30 52 156 69 83 213 188 192 153 12 28 142 16 31 149 64 54 225 191 151 253 248 194 248 241 184 248 243 183 248 243 183 249 242 182 244 244 188 250 241 190 247 242 186 242 240 181 245 237 178 244 237 179 246 236 178 244 238 179 235 231 173 242 228 173 243 234 174 243 229 172 244 237 182 
255 255 255 255 252 253 251 255 255 255 255 255 222 188 203 114 7 15 254 253 196 242 226 169 238 228 173 231 243 180 255 255 204 201 175 176 255 255 255 251 254 255 134 15 31 255 28 34 146 13 25 193 55 66 247 20 30 217 42 36 151 5 23 253 255 255 198 166 176 214 7 26 141 15 23 241 237 244 175 98 116 119 27 38 151 73 65 154 71 59 154 70 59 154 71 59 154 54 58 144 46 52 149 66 61 194 129 111 191 130 102 191 130 102 192 128 104 187 130 110 255 231 191 247 230 179 218 180 143 249 228 189 188 136 109 
255 255 255 249 253 252 255 255 255 233 212 221 141 15 29 156 23 37 222 191 164 241 249 187 251 242 195 206 163 137 174 98 91 255 255 255 255 255 255 234 230 232 176 0 10 223 41 46 146 12 29 238 27 42 241 34 46 158 12 29 224 211 213 232 225 230 147 21 34 214 32 41 164 92 103 255 255 255 255 255 255 255 255 255 255 253 253 255 254 255 255 253 255 255 253 255 253 255 255 255 255 255 240 228 230 213 184 193 215 188 200 215 188 200 217 189 199 215 172 178 141 59 74 155 59 74 180 123 130 124 49 62 201 145 162 
255 255 255 255 255 255 196 176 177 141 0 0 237 33 35 236 29 48 167 20 32 190 145 133 148 76 68 162 3 19 141 39 53 168 0 11 204 177 182 197 184 184 216 2 22 169 21 31 134 25 43 239 36 53 141 11 14 193 148 164 255 255 255 107 0 21 214 44 57 160 0 0 246 249 255 248 255 252 255 253 252 251 255 255 255 254 255 255 255 255 255 255 255 255 255 255 255 253 255 253 254 255 254 255 255 255 255 255 255 255 255 255 255 255 255 255 255 255 255 255 255 255 255 255 255 255 255 255 255 255 255 255 255 255 255 
255 255 255 255 255 255 182 137 148 221 9 29 241 28 31 237 26 37 239 34 40 145 9 21 224 13 35 225 27 41 158 0 4 244 40 46 159 5 25 171 124 141 195 17 28 236 52 61 142 40 53 165 28 39 221 34 40 139 59 73 255 255 255 255 255 255 141 21 33 187 22 33 172 111 117 255 255 255 255 255 255 255 255 255 255 255 255 255 255 255 255 255 255 255 255 255 255 255 255 255 255 255 255 255 255 255 255 255 255 255 255 255 255 255 255 255 255 255 255 255 255 255 255 255 255 255 255 254 255 253 255 255 255 255 255 
255 255 255 255 255 255 140 44 53 233 30 43 237 27 33 240 25 37 240 31 31 161 10 15 248 27 39 237 28 35 245 22 40 210 184 187 198 1 14 204 179 181 133 50 59 231 29 40 171 11 34 169 129 132 231 26 35 208 21 26 120 5 27 255 255 255 216 204 203 178 2 23 169 7 28 221 202 207 255 255 255 255 255 255 255 255 255 255 255 255 255 255 255 255 255 255 255 255 255 255 255 255 255 255 255 255 255 255 255 255 255 255 255 255 255 255 255 255 255 255 255 255 255 255 255 255 255 253 255 249 255 254 255 255 255 
255 255 255 181 137 143 212 34 48 242 23 30 239 26 31 238 25 38 239 32 41 153 13 26 245 28 42 243 26 30 208 4 18 239 24 37 241 30 42 151 79 89 255 255 255 158 9 23 134 0 8 196 156 177 168 29 37 255 18 27 150 25 31 255 255 255 255 255 255 143 36 50 140 12 25 238 231 235 255 255 255 255 255 255 255 255 255 255 255 255 255 255 255 255 255 255 255 255 255 255 255 255 255 255 255 255 255 255 255 255 255 255 255 255 255 255 255 255 255 255 255 255 255 255 255 255 255 252 255 252 255 255 235 218 228 
255 255 255 154 53 68 236 24 32 238 26 38 233 30 30 235 28 37 244 28 40 133 0 2 221 26 39 219 37 39 131 19 36 232 29 35 244 18 28 155 80 97 255 255 255 133 13 32 212 61 71 131 16 34 143 41 50 244 41 54 126 15 27 255 255 255 251 255 255 217 179 193 163 113 118 255 255 255 255 255 255 255 255 255 255 255 255 255 255 255 255 255 255 255 255 255 255 255 255 255 255 255 255 255 255 255 255 255 255 255 255 255 255 255 255 255 255 255 255 255 255 255 255 254 255 255 253 251 255 251 255 255 222 203 208 
255 255 255 161 36 51 245 23 31 237 26 38 233 30 30 241 25 37 235 19 28 168 105 112 168 98 116 154 11 21 243 27 32 243 25 27 240 20 31 155 78 94 255 255 255 200 161 172 155 0 0 204 17 39 137 18 37 115 0 7 192 149 157 255 255 255 254 254 252 255 255 255 255 255 255 253 250 255 255 255 255 255 255 255 255 255 255 255 255 255 255 255 255 255 255 255 255 255 255 255 255 255 255 255 255 255 255 255 255 255 255 255 255 255 255 255 255 255 255 255 255 255 255 254 255 255 251 254 255 255 252 254 255 255 255 
255 255 255 161 39 46 239 26 26 235 27 39 236 28 31 244 23 37 232 18 26 193 160 161 186 44 50 155 90 102 182 21 32 244 28 32 248 20 33 155 74 84 255 255 255 247 254 255 233 225 233 193 159 165 236 235 237 249 255 255 255 255 255 253 255 255 251 254 250 252 254 253 253 254 254 253 254 252 255 255 255 255 255 255 255 255 255 255 255 255 255 255 255 255 255 255 255 255 255 255 255 255 255 255 255 255 255 255 255 255 255 255 255 255 255 255 255 255 255 255 255 255 255 255 255 255 253 254 253 250 255 255 255 255 255 
255 255 255 160 38 54 241 25 31 239 26 36 244 23 38 230 32 30 245 22 36 141 27 40 255 255 255 181 130 138 147 65 78 205 8 17 134 0 9 200 152 167 247 255 255 255 254 255 255 255 255 255 255 255 255 255 255 255 255 255 255 255 255 255 255 255 255 255 254 255 255 254 255 255 255 254 255 254 255 255 255 255 255 255 255 255 255 255 255 255 255 255 255 255 255 255 255 255 255 255 255 255 255 255 255 255 255 255 255 255 255 255 255 255 255 255 255 255 255 255 255 255 255 255 255 255 255 254 255 254 255 255 255 255 255 
255 255 255 158 38 53 239 25 30 236 27 37 237 26 35 235 28 33 246 22 35 216 31 50 174 124 133 255 255 255 255 255 255 185 144 149 249 239 249 255 255 255 252 253 253 255 251 255 252 255 255 255 255 255 255 255 255 255 255 255 255 255 255 255 255 255 255 255 255 255 255 255 255 255 255 255 255 255 255 255 255 255 255 255 255 255 255 255 255 255 255 255 255 255 255 255 255 255 255 255 255 255 255 255 255 255 255 255 255 255 255 255 255 255 255 255 255 255 255 255 255 255 255 255 255 255 255 255 255 255 255 255 255 255 255 
255 255 255 156 33 48 240 26 31 234 27 37 234 29 32 237 26 36 232 29 35 241 23 27 191 33 52 255 255 255 249 253 251 255 255 255 251 255 254 253 254 255 254 254 255 252 254 253 255 254 255 255 255 255 255 255 255 255 255 255 255 255 255 255 255 255 255 255 255 255 255 255 255 255 255 255 255 255 255 255 255 255 255 255 255 255 255 255 255 255 255 255 255 255 255 255 255 255 255 255 255 255 255 255 255 255 255 255 255 255 255 255 255 255 255 255 255 255 255 255 255 255 255 255 255 255 255 255 255 255 255 255 255 255 255 
255 255 255 164 88 105 214 37 40 243 22 35 235 27 40 237 26 35 234 28 35 246 23 36 223 18 29 198 110 117 255 255 255 255 255 255 255 255 255 255 253 254 254 254 255 254 255 254 255 254 255 255 255 255 255 255 255 255 255 255 255 255 255 255 255 255 255 255 255 255 255 255 255 255 255 255 255 255 255 255 255 255 255 255 255 255 255 255 255 255 255 255 255 255 255 255 255 255 255 255 255 255 255 255 255 255 255 255 255 255 255 255 255 255 255 255 255 255 255 255 255 255 255 255 255 255 255 255 255 255 255 255 255 255 255 
255 255 255 248 255 255 157 24 37 241 23 31 236 28 35 237 26 35 237 26 36 235 29 35 242 24 31 227 26 42 151 85 93 241 227 239 249 255 255 252 255 254 255 255 255 255 255 255 255 255 255 255 255 255 255 255 255 255 255 255 255 255 255 255 255 255 255 255 255 255 255 255 255 255 255 255 255 255 255 255 255 255 255 255 255 255 255 255 255 255 255 255 255 255 255 255 255 255 255 255 255 255 255 255 255 255 255 255 255 255 255 255 255 255 255 255 255 255 255 255 255 255 255 255 255 255 255 255 255 255 255 255 255 255 255 
255 255 255 255 255 255 148 65 80 232 41 54 242 23 29 236 27 36 237 26 36 232 29 33 248 21 33 237 23 36 231 41 54 130 0 12 250 238 248 255 255 255 255 255 255 255 255 255 255 255 255 255 255 255 255 255 255 255 255 255 255 255 255 255 255 255 255 255 255 255 255 255 255 255 255 255 255 255 255 255 255 255 255 255 255 255 255 255 255 255 255 255 255 255 255 255 255 255 255 255 255 255 255 255 255 255 255 255 255 255 255 255 255 255 255 255 255 255 255 255 255 255 255 255 255 255 255 255 255 255 255 255 255 255 255 
255 255 255 255 255 255 247 240 244 145 32 39 244 23 36 244 24 36 241 24 35 241 27 39 247 26 36 235 31 36 247 23 30 254 47 51 115 0 0 255 255 255 255 255 255 255 255 255 255 255 255 255 255 255 255 255 255 255 255 255 255 255 255 255 255 255 255 255 255 255 255 255 255 255 255 255 255 255 255 255 255 255 255 255 255 255 255 255 255 255 255 255 255 255 255 255 255 255 255 255 255 255 255 255 255 255 255 255 255 255 255 255 255 255 255 255 255 255 255 255 255 255 255 255 255 255 255 255 255 255 255 255 255 255 255 
255 255 255 255 255 251 255 255 255 188 143 153 182 35 48 220 9 18 224 22 30 175 6 15 163 0 4 165 0 5 165 0 5 174 0 3 109 0 0 255 255 255 255 255 255 255 255 255 255 255 255 255 255 255 255 255 255 255 255 255 255 255 255 255 255 255 255 255 255 255 255 255 255 255 255 255 255 255 255 255 255 255 255 255 255 255 255 255 255 255 255 255 255 255 255 255 255 255 255 255 255 255 255 255 255 255 255 255 255 255 255 255 255 255 255 255 255 255 255 255 255 255 255 255 255 255 255 255 255 255 255 255 255 255 255 
255 255 255 252 255 252 253 255 255 255 255 255 197 164 176 182 126 136 176 121 130 227 214 217 253 255 255 250 255 255 249 255 255 246 255 255 232 225 224 255 252 255 255 255 255 255 255 255 255 255 255 255 255 255 255 255 255 255 255 255 255 255 255 255 255 255 255 255 255 255 255 255 255 255 255 255 255 255 255 255 255 255 255 255 255 255 255 255 255 255 255 255 255 255 255 255 255 255 255 255 255 255 255 255 255 255 255 255 255 255 255 255 255 255 255 255 255 255 255 255 255 255 255 255 255 255 255 255 255 255 255 255 255 255 255 
255 255 255 254 254 255 255 252 251 249 255 250 255 255 255 255 255 255 255 255 255 255 255 255 255 255 255 255 255 255 255 255 255 253 255 255 255 255 255 252 255 255 255 255 255 255 255 255 255 255 255 255 255 255 255 255 255 255 255 255 255 255 255 255 255 255 255 255 255 255 255 255 255 255 255 255 255 255 255 255 255 255 255 255 255 255 255 255 255 255 255 255 255 255 255 255 255 255 255 255 255 255 255 255 255 255 255 255 255 255 255 255 255 255 255 255 255 255 255 255 255 255 255 255 255 255 255 255 255 255 255 255 255 255 255 
255 255 255 255 255 255 255 255 255 255 255 255 255 255 255 255 255 255 255 255 255 255 255 255 255 255 255 255 255 255 255 255 255 255 255 255 254 255 255 255 255 255 255 255 255 255 255 255 255 255 255 255 255 255 255 255 255 255 255 255 255 255 255 255 255 255 255 255 255 255 255 255 255 255 255 255 255 255 255 255 255 255 255 255 255 255 255 255 255 255 255 255 255 255 255 255 255 255 255 255 255 255 255 255 255 255 255 255 255 255 255 255 255 255 255 255 255 255 255 255 255 255 255 255 255 255 255 255 255 255 255 255 255 255 255 
255 255 255 255 255 255 255 255 255 255 255 255 255 255 255 255 255 255 255 255 255 255 255 255 255 255 255 255 255 255 255 255 255 255 255 255 255 255 255 255 255 255 255 255 255 255 255 255 255 255 255 255 255 255 255 255 255 255 255 255 255 255 255 255 255 255 255 255 255 255 255 255 255 255 255 255 255 255 255 255 255 255 255 255 0 0 0 0 0 0 0 0 0 0 0 0 0 0 0 0 0 0 0 0 0 0 0 0 0 0 0 0 0 0 0 0 0 0 0 0 0 0 0 0 0 0 0 0 0 0 0 0 0 0 0 
0 0 0 0 0 0 0 0 0 0 0 0 0 0 0 0 0 0 0 0 0 0 0 0 0 0 0 0 0 0 0 0 0 0 0 0 0 0 0 0 0 0 0 0 0 0 0 0 0 0 0 0 0 0 0 0 0 0 0 0 0 0 0 0 0 0 0 0 0 0 0 0 0 0 0 0 0 0 0 0 0 0 0 0 0 0 0 0 0 0 0 0 0 0 0 0 0 0 0 0 0 0 0 0 0 0 0 0 0 0 0 0 0 0 0 0 0 0 0 0 0 0 0 0 0 0 0 0 0 0 0 0 0 0 0 
0 0 0 0 0 0 0 0 0 0 0 0 0 0 0 0 0 0 0 0 0 0 0 0 0 0 0 0 0 0 0 0 0 0 0 0 0 0 0 0 0 0 0 0 0 0 0 0 0 0 0 0 0 0 0 0 0 0 0 0 0 0 0 0 0 0 0 0 0 0 0 0 0 0 0 0 0 0 0 0 0 0 0 0 0 0 0 0 0 0 0 0 0 0 0 0 0 0 0 0 0 0 0 0 0 0 0 0 0 0 0 0 0 0 0 0 0 0 0 0 0 0 0 0 0 0 0 0 0 0 0 0 0 0 0 
0 0 0 0 0 0 0 0 0 0 0 0 0 0 0 0 0 0 0 0 0 0 0 0 0 0 0 0 0 0 0 0 0 0 0 0 0 0 0 0 0 0 0 0 0 0 0 0 0 0 0 0 0 0 0 0 0 0 0 0 0 0 0 0 0 0 0 0 0 0 0 0 0 0 0 0 0 0 0 0 0 0 0 0 0 0 0 0 0 0 0 0 0 0 0 0 0 0 0 0 0 0 0 0 0 0 0 0 0 0 0 0 0 0 0 0 0 0 0 0 0 0 0 0 0 0 0 0 0 0 0 0 0 0 0 
0 0 0 0 0 0 0 0 0 0 0 0 0 0 0 0 0 0 0 0 0 0 0 0 0 0 0 0 0 0 0 0 0 0 0 0 0 0 0 0 0 0 0 0 0 0 0 0 0 0 0 0 0 0 0 0 0 0 0 0 0 0 0 0 0 0 0 0 0 0 0 0 0 0 0 0 0 0 0 0 0 0 0 0 0 0 0 0 0 0 0 0 0 0 0 0 0 0 0 0 0 0 0 0 0 0 0 0 0 0 0 0 0 0 0 0 0 0 0 0 0 0 0 0 0 0 0 0 0 0 0 0 0 0 0 
0 0 0 0 0 0 0 0 0 0 0 0 0 0 0 0 0 0 0 0 0 0 0 0 0 0 0 0 0 0 0 0 0 0 0 0 0 0 0 0 0 0 0 0 0 0 0 0 0 0 0 0 0 0 0 0 0 0 0 0 0 0 0 0 0 0 0 0 0 0 0 0 0 0 0 0 0 0 0 0 0 0 0 0 0 0 0 0 0 0 0 0 0 0 0 0 0 0 0 0 0 0 0 0 0 0 0 0 0 0 0 0 0 0 0 0 0 0 0 0 0 0 0 0 0 0 0 0 0 0 0 0 0 0 0 
0 0 0 0 0 0 0 0 0 0 0 0 0 0 0 0 0 0 0 0 0 0 0 0 0 0 0 0 0 0 0 0 0 0 0 0 0 0 0 0 0 0 0 0 0 0 0 0 0 0 0 0 0 0 0 0 0 0 0 0 0 0 0 0 0 0 0 0 0 0 0 0 0 0 0 0 0 0 0 0 0 0 0 0 0 0 0 0 0 0 0 0 0 0 0 0 0 0 0 0 0 0 0 0 0 0 0 0 0 0 0 0 0 0 0 0 0 0 0 0 0 0 0 0 0 0 0 0 0 0 0 0 0 0 0 
0 0 0 0 0 0 0 0 0 0 0 0 0 0 0 0 0 0 0 0 0 0 0 0 0 0 0 0 0 0 0 0 0 0 0 0 0 0 0 0 0 0 0 0 0 0 0 0 0 0 0 0 0 0 0 0 0 0 0 0 0 0 0 0 0 0 0 0 0 0 0 0 0 0 0 0 0 0 0 0 0 0 0 0 0 0 0 0 0 0 0 0 0 0 0 0 0 0 0 0 0 0 0 0 0 0 0 0 0 0 0 0 0 0 0 0 0 0 0 0 0 0 0 0 0 0 0 0 0 0 0 0 0 0 0 
0 0 0 0 0 0 0 0 0 0 0 0 0 0 0 0 0 0 0 0 0 0 0 0 0 0 0 0 0 0 0 0 0 0 0 0 0 0 0 0 0 0 0 0 0 0 0 0 0 0 0 0 0 0 0 0 0 0 0 0 0 0 0 0 0 0 0 0 0 0 0 0 0 0 0 0 0 0 0 0 0 0 0 0 0 0 0 0 0 0 0 0 0 0 0 0 0 0 0 0 0 0 0 0 0 0 0 0 0 0 0 0 0 0 0 0 0 0 0 0 0 0 0 0 0 0 0 0 0 0 0 0 0 0 0 
0 0 0 0 0 0 0 0 0 0 0 0 0 0 0 0 0 0 0 0 0 0 0 0 0 0 0 0 0 0 0 0 0 0 0 0 0 0 0 0 0 0 0 0 0 0 0 0 0 0 0 0 0 0 0 0 0 0 0 0 0 0 0 0 0 0 0 0 0 0 0 0 0 0 0 0 0 0 0 0 0 0 0 0 0 0 0 0 0 0 0 0 0 0 0 0 0 0 0 0 0 0 0 0 0 0 0 0 0 0 0 0 0 0 0 0 0 0 0 0 0 0 0 0 0 0 0 0 0 0 0 0 0 0 0 
0 0 0 0 0 0 0 0 0 0 0 0 0 0 0 0 0 0 0 0 0 0 0 0 0 0 0 0 0 0 0 0 0 0 0 0 0 0 0 0 0 0 0 0 0 0 0 0 0 0 0 0 0 0 0 0 0 0 0 0 0 0 0 0 0 0 0 0 0 0 0 0 0 0 0 0 0 0 0 0 0 0 0 0 0 0 0 0 0 0 0 0 0 0 0 0 0 0 0 0 0 0 0 0 0 0 0 0 0 0 0 0 0 0 0 0 0 0 0 0 0 0 0 0 0 0 0 0 0 0 0 0 0 0 0 
0 0 0 0 0 0 0 0 0 0 0 0 0 0 0 0 0 0 0 0 0 0 0 0 0 0 0 0 0 0 0 0 0 0 0 0 0 0 0 0 0 0 0 0 0 0 0 0 0 0 0 0 0 0 0 0 0 0 0 0 0 0 0 0 0 0 0 0 0 0 0 0 0 0 0 0 0 0 0 0 0 0 0 0 0 0 0 0 0 0 0 0 0 0 0 0 0 0 0 0 0 0 0 0 0 0 0 0 0 0 0 0 0 0 0 0 0 0 0 0 0 0 0 0 0 0 0 0 0 0 0 0 0 0 0 
0 0 0 0 0 0 0 0 0 0 0 0 0 0 0 0 0 0 0 0 0 0 0 0 0 0 0 0 0 0 0 0 0 0 0 0 0 0 0 0 0 0 0 0 0 0 0 0 0 0 0 0 0 0 0 0 0 0 0 0 0 0 0 0 0 0 0 0 0 0 0 0 0 0 0 0 0 0 0 0 0 0 0 0 0 0 0 0 0 0 0 0 0 0 0 0 0 0 0 0 0 0 0 0 0 0 0 0 0 0 0 0 0 0 0 0 0 0 0 0 0 0 0 0 0 0 0 0 0 0 0 0 0 0 0 
0 0 0 0 0 0 0 0 0 0 0 0 0 0 0 0 0 0 0 0 0 0 0 0 0 0 0 0 0 0 0 0 0 0 0 0 0 0 0 0 0 0 0 0 0 0 0 0 0 0 0 0 0 0 0 0 0 0 0 0 0 0 0 0 0 0 0 0 0 0 0 0 0 0 0 0 0 0 0 0 0 0 0 0 0 0 0 0 0 0 0 0 0 0 0 0 0 0 0 0 0 0 0 0 0 0 0 0 0 0 0 0 0 0 0 0 0 0 0 0 0 0 0 0 0 0 0 0 0 0 0 0 0 0 0 
0 0 0 0 0 0 0 0 0 0 0 0 0 0 0 0 0 0 0 0 0 0 0 0 0 0 0 0 0 0 0 0 0 0 0 0 0 0 0 0 0 0 0 0 0 0 0 0 0 0 0 0 0 0 0 0 0 0 0 0 0 0 0 0 0 0 0 0 0 0 0 0 0 0 0 0 0 0 0 0 0 0 0 0 0 0 0 0 0 0 0 0 0 0 0 0 0 0 0 0 0 0 0 0 0 0 0 0 0 0 0 0 0 0 0 0 0 0 0 0 0 0 0 0 0 0 0 0 0 0 0 0 0 0 0 
0 0 0 0 0 0 0 0 0 0 0 0 0 0 0 0 0 0 0 0 0 0 0 0 0 0 0 0 0 0 0 0 0 0 0 0 0 0 0 0 0 0 0 0 0 0 0 0 0 0 0 0 0 0 0 0 0 0 0 0 0 0 0 0 0 0 0 0 0 0 0 0 0 0 0 0 0 0 0 0 0 0 0 0 0 0 0 0 0 0 0 0 0 0 0 0 0 0 0 0 0 0 0 0 0 0 0 0 0 0 0 0 0 0 0 0 0 0 0 0 0 0 0 0 0 0 0 0 0 0 0 0 0 0 0 
0 0 0 0 0 0 0 0 0 0 0 0 0 0 0 0 0 0 0 0 0 0 0 0 0 0 0 0 0 0 0 0 0 0 0 0 0 0 0 0 0 0 0 0 0 0 0 0 0 0 0 0 0 0 0 0 0 0 0 0 0 0 0 0 0 0 0 0 0 0 0 0 0 0 0 0 0 0 0 0 0 0 0 0 0 0 0 0 0 0 0 0 0 0 0 0 0 0 0 0 0 0 0 0 0 0 0 0 0 0 0 0 0 0 0 0 0 0 0 0 0 0 0 0 0 0 0 0 0 0 0 0 0 0 0 
0 0 0 0 0 0 0 0 0 0 0 0 0 0 0 0 0 0 0 0 0 0 0 0 0 0 0 0 0 0 0 0 0 0 0 0 0 0 0 0 0 0 0 0 0 0 0 0 0 0 0 0 0 0 0 0 0 0 0 0 0 0 0 0 0 0 0 0 0 0 0 0 0 0 0 0 0 0 0 0 0 0 0 0 0 0 0 0 0 0 0 0 0 0 0 0 0 0 0 0 0 0 0 0 0 0 0 0 0 0 0 0 0 0 0 0 0 0 0 0 0 0 0 0 0 0 0 0 0 0 0 0 0 0 0 
0 0 0 0 0 0 0 0 0 0 0 0 0 0 0 0 0 0 0 0 0 0 0 0 0 0 0 0 0 0 0 0 0 0 0 0 0 0 0 0 0 0 0 0 0 0 0 0 0 0 0 0 0 0 0 0 0 0 0 0 0 0 0 0 0 0 0 0 0 0 0 0 0 0 0 0 0 0 0 0 0 0 0 0 0 0 0 0 0 0 0 0 0 0 0 0 0 0 0 0 0 0 0 0 0 0 0 0 0 0 0 0 0 0 0 0 0 0 0 0 0 0 0 0 0 0 0 0 0 0 0 0 0 0 0 
0 0 0 0 0 0 0 0 0 0 0 0 0 0 0 0 0 0 0 0 0 0 0 0 0 0 0 0 0 0 0 0 0 0 0 0 0 0 0 0 0 0 0 0 0 0 0 0 0 0 0 0 0 0 0 0 0 0 0 0 0 0 0 0 0 0 0 0 0 0 0 0 0 0 0 0 0 0 0 0 0 0 0 0 0 0 0 0 0 0 0 0 0 0 0 0 0 0 0 0 0 0 0 0 0 0 0 0 0 0 0 0 0 0 0 0 0 0 0 0 0 0 0 0 0 0 0 0 0 0 0 0 0 0 0 
0 0 0 0 0 0 0 0 0 0 0 0 0 0 0 0 0 0 0 0 0 0 0 0 0 0 0 0 0 0 0 0 0 0 0 0 0 0 0 0 0 0 0 0 0 0 0 0 0 0 0 0 0 0 0 0 0 0 0 0 0 0 0 0 0 0 0 0 0 0 0 0 0 0 0 0 0 0 0 0 0 0 0 0 0 0 0 0 0 0 0 0 0 0 0 0 0 0 0 0 0 0 0 0 0 0 0 0 0 0 0 0 0 0 0 0 0 0 0 0 0 0 0 0 0 0 0 0 0 0 0 0 0 0 0 
0 0 0 0 0 0 0 0 0 0 0 0 0 0 0 0 0 0 0 0 0 0 0 0 0 0 0 0 0 0 0 0 0 0 0 0 0 0 0 0 0 0 0 0 0 0 0 0 0 0 0 0 0 0 0 0 0 0 0 0 0 0 0 0 0 0 0 0 0 0 0 0 0 0 0 0 0 0 0 0 0 0 0 0 0 0 0 0 0 0 0 0 0 0 0 0 0 0 0 0 0 0 0 0 0 0 0 0 0 0 0 0 0 0 0 0 0 0 0 0 0 0 0 0 0 0 0 0 0 0 0 0 0 0 0 
0 0 0 0 0 0 0 0 0 0 0 0 0 0 0 0 0 0 0 0 0 0 0 0 0 0 0 0 0 0 0 0 0 0 0 0 0 0 0 0 0 0 0 0 0 0 0 0 0 0 0 0 0 0 0 0 0 0 0 0 0 0 0 0 0 0 0 0 0 0 0 0 0 0 0 0 0 0 0 0 0 0 0 0 0 0 0 0 0 0 0 0 0 0 0 0 0 0 0 0 0 0 0 0 0 0 0 0 0 0 0 0 0 0 0 0 0 0 0 0 0 0 0 0 0 0 0 0 0 0 0 0 0 0 0 
0 0 0 0 0 0 0 0 0 0 0 0 0 0 0 0 0 0 0 0 0 0 0 0 0 0 0 0 0 0 0 0 0 0 0 0 0 0 0 0 0 0 0 0 0 0 0 0 0 0 0 0 0 0 0 0 0 0 0 0 0 0 0 0 0 0 0 0 0 0 0 0 0 0 0 0 0 0 0 0 0 0 0 0 0 0 0 0 0 0 0 0 0 0 0 0 0 0 0 0 0 0 0 0 0 0 0 0 0 0 0 0 0 0 0 0 0 0 0 0 0 0 0 0 0 0 0 0 0 0 0 0 0 0 0 
0 0 0 0 0 0 0 0 0 0 0 0 0 0 0 0 0 0 0 0 0 0 0 0 0 0 0 0 0 0 0 0 0 0 0 0 0 0 0 0 0 0 0 0 0 0 0 0 0 0 0 0 0 0 0 0 0 0 0 0 0 0 0 0 0 0 0 0 0 0 0 0 0 0 0 0 0 0 0 0 0 0 0 0 0 0 0 0 0 0 0 0 0 0 0 0 0 0 0 0 0 0 0 0 0 0 0 0 0 0 0 0 0 0 0 0 0 0 0 0 0 0 0 0 0 0 0 0 0 0 0 0 0 0 0 
0 0 0 0 0 0 0 0 0 0 0 0 0 0 0 0 0 0 0 0 0 0 0 0 0 0 0 0 0 0 0 0 0 0 0 0 0 0 0 0 0 0 0 0 0 0 0 0 0 0 0 0 0 0 0 0 0 0 0 0 0 0 0 0 0 0 0 0 0 0 0 0 0 0 0 0 0 0 0 0 0 0 0 0 0 0 0 0 0 0 0 0 0 0 0 0 0 0 0 0 0 0 0 0 0 0 0 0 0 0 0 0 0 0 0 0 0 0 0 0 0 0 0 0 0 0 0 0 0 0 0 0 0 0 0 
0 0 0 0 0 0 0 0 0 0 0 0 0 0 0 0 0 0 0 0 0 0 0 0 0 0 0 0 0 0 0 0 0 0 0 0 0 0 0 0 0 0 0 0 0 0 0 0 0 0 0 0 0 0 0 0 0 0 0 0 0 0 0 0 0 0 0 0 0 0 0 0 0 0 0 0 0 0 0 0 0 0 0 0 0 0 0 0 0 0 0 0 0 0 0 0 0 0 0 0 0 0 0 0 0 0 0 0 0 0 0 0 0 0 0 0 0 0 0 0 0 0 0 0 0 0 0 0 0 0 0 0 0 0 0 
0 0 0 0 0 0 0 0 0 0 0 0 0 0 0 0 0 0 0 0 0 0 0 0 0 0 0 0 0 0 0 0 0 0 0 0 0 0 0 0 0 0 0 0 0 0 0 0 0 0 0 0 0 0 0 0 0 0 0 0 0 0 0 0 0 0 0 0 0 0 0 0 0 0 0 0 0 0 0 0 0 0 0 0 0 0 0 0 0 0 0 0 0 0 0 0 0 0 0 0 0 0 0 0 0 0 0 0 0 0 0 0 0 0 0 0 0 0 0 0 0 0 0 0 0 0 0 0 0 0 0 0 0 0 0 
